<svg width="60" height="60" viewBox="0 0 60 60" fill="none" xmlns="http://www.w3.org/2000/svg">
<path fill-rule="evenodd" clip-rule="evenodd" d="M40.5 15.4545C40.5 15.0688 40.658 14.6988 40.9393 14.426C41.2206 14.1532 41.6022 14 42 14H48C48.3978 14 48.7794 14.1532 49.0607 14.426C49.342 14.6988 49.5 15.0688 49.5 15.4545V18.3636H54C54.3978 18.3636 54.7794 18.5169 55.0607 18.7897C55.342 19.0624 55.5 19.4324 55.5 19.8182V28.5455H60V31.4545H55.5V40.1818C55.5 40.5676 55.342 40.9376 55.0607 41.2103C54.7794 41.4831 54.3978 41.6364 54 41.6364H49.5V44.5455C49.5 44.9312 49.342 45.3012 49.0607 45.574C48.7794 45.8468 48.3978 46 48 46H42C41.6022 46 41.2206 45.8468 40.9393 45.574C40.658 45.3012 40.5 44.9312 40.5 44.5455V31.4545H19.5V44.5455C19.5 44.9312 19.342 45.3012 19.0607 45.574C18.7794 45.8468 18.3978 46 18 46H12C11.6022 46 11.2206 45.8468 10.9393 45.574C10.658 45.3012 10.5 44.9312 10.5 44.5455V41.6364H6C5.60218 41.6364 5.22064 41.4831 4.93934 41.2103C4.65804 40.9376 4.5 40.5676 4.5 40.1818V31.4545H0V28.5455H4.5V19.8182C4.5 19.4324 4.65804 19.0624 4.93934 18.7897C5.22064 18.5169 5.60218 18.3636 6 18.3636H10.5V15.4545C10.5 15.0688 10.658 14.6988 10.9393 14.426C11.2206 14.1532 11.6022 14 12 14H18C18.3978 14 18.7794 14.1532 19.0607 14.426C19.342 14.6988 19.5 15.0688 19.5 15.4545V28.5455H40.5V15.4545ZM13.5 43.0909H16.5V16.9091H13.5V43.0909ZM10.5 21.2727H7.5V38.7273H10.5V21.2727ZM49.5 38.7273V21.2727H52.5V38.7273H49.5ZM46.5 16.9091V43.0909H43.5V16.9091H46.5Z" fill="white"/>
</svg>
