<svg width="60" height="60" viewBox="0 0 60 60" fill="none" xmlns="http://www.w3.org/2000/svg">
<path d="M5 40V47.5M30 32.5V17.5C30 16.1739 30.5268 14.9021 31.4645 13.9645C32.4021 13.0268 33.6739 12.5 35 12.5H45C46.3261 12.5 47.5979 13.0268 48.5355 13.9645C49.4732 14.9021 50 16.1739 50 17.5V22.5M30 32.5V17.5C30 16.1739 29.4732 14.9021 28.5355 13.9645C27.5979 13.0268 26.3261 12.5 25 12.5H15C13.6739 12.5 12.4021 13.0268 11.4645 13.9645C10.5268 14.9021 10 16.1739 10 17.5V22.5" stroke="white" stroke-width="3" stroke-linecap="round" stroke-linejoin="round"/>
<path d="M55 40V47.5M50 22.5C48.6739 22.5 47.4021 23.0268 46.4645 23.9645C45.5268 24.9021 45 26.1739 45 27.5V32.5H15V27.5C15 26.1739 14.4732 24.9021 13.5355 23.9645C12.5979 23.0268 11.3261 22.5 10 22.5C8.67392 22.5 7.40215 23.0268 6.46447 23.9645C5.52678 24.9021 5 26.1739 5 27.5V42.5H55V27.5C55 26.1739 54.4732 24.9021 53.5355 23.9645C52.5979 23.0268 51.3261 22.5 50 22.5Z" stroke="white" stroke-width="3" stroke-linecap="round" stroke-linejoin="round"/>
</svg>
