<svg width="60" height="60" viewBox="0 0 60 60" fill="none" xmlns="http://www.w3.org/2000/svg">
<path d="M52.627 30.133L39.5102 25.2703L34.0273 18.1696C33.5506 17.5683 32.95 17.0841 32.2693 16.7521C31.5885 16.4201 30.8446 16.2486 30.0916 16.25H16.527C15.6974 16.2497 14.8803 16.4588 14.147 16.8589C13.4137 17.2591 12.7864 17.8382 12.3198 18.5458L7.71911 25.5153C6.76089 26.9658 6.2489 28.6805 6.25 30.4357V44.247C6.25 44.7111 6.42873 45.1562 6.74687 45.4843C7.06502 45.8125 7.49651 45.9968 7.94643 45.9968H11.5802C11.9492 47.4986 12.7932 48.8306 13.9785 49.782C15.1639 50.7334 16.623 51.25 18.125 51.25C19.627 51.25 21.0861 50.7334 22.2715 49.782C23.4568 48.8306 24.3008 47.4986 24.6698 45.9968H35.3302C35.6992 47.4986 36.5432 48.8306 37.7285 49.782C38.9139 50.7334 40.373 51.25 41.875 51.25C43.377 51.25 44.8361 50.7334 46.0215 49.782C47.2068 48.8306 48.0508 47.4986 48.4198 45.9968H52.0536C52.5035 45.9968 52.935 45.8125 53.2531 45.4843C53.5713 45.1562 53.75 44.7111 53.75 44.247V31.7796C53.7499 31.4193 53.6421 31.0677 53.4411 30.773C53.24 30.4783 52.9557 30.2548 52.627 30.133ZM18.125 47.7467C17.454 47.7467 16.798 47.5414 16.24 47.1569C15.6821 46.7723 15.2472 46.2257 14.9904 45.5863C14.7336 44.9468 14.6664 44.2431 14.7973 43.5643C14.9283 42.8854 15.2514 42.2618 15.7259 41.7724C16.2004 41.283 16.8049 40.9497 17.4631 40.8146C18.1212 40.6796 18.8034 40.7489 19.4234 41.0138C20.0434 41.2787 20.5732 41.7272 20.9461 42.3027C21.3189 42.8782 21.5179 43.5549 21.5179 44.247C21.5165 45.1748 21.1586 46.0641 20.5226 46.7201C19.8866 47.3761 19.0244 47.7453 18.125 47.7467ZM41.875 47.7467C41.204 47.7467 40.548 47.5414 39.99 47.1569C39.4321 46.7723 38.9972 46.2257 38.7404 45.5863C38.4836 44.9468 38.4164 44.2431 38.5473 43.5643C38.6782 42.8854 39.0014 42.2618 39.4759 41.7724C39.9504 41.283 40.5549 40.9497 41.2131 40.8146C41.8712 40.6796 42.5534 40.7489 43.1734 41.0138C43.7934 41.2787 44.3232 41.7272 44.6961 42.3027C45.0689 42.8782 45.2679 43.5549 45.2679 44.247C45.267 45.1749 44.9092 46.0645 44.2731 46.7206C43.637 47.3767 42.7746 47.7457 41.875 47.7467ZM50.3571 42.4972H48.4198C48.0508 40.9955 47.2068 39.6635 46.0215 38.7121C44.8361 37.7606 43.377 37.244 41.875 37.244C40.373 37.244 38.9139 37.7606 37.7285 38.7121C36.5432 39.6635 35.6992 40.9955 35.3302 42.4972H24.6698C24.3008 40.9955 23.4568 39.6635 22.2715 38.7121C21.0861 37.7606 19.627 37.244 18.125 37.244C16.623 37.244 15.1639 37.7606 13.9785 38.7121C12.7932 39.6635 11.9492 40.9955 11.5802 42.4972H9.64286V30.4357C9.64267 29.3822 9.95007 28.3529 10.525 27.4821L15.124 20.5161C15.2795 20.28 15.4887 20.0867 15.7332 19.9531C15.9777 19.8195 16.2502 19.7497 16.527 19.7496H30.0916C30.3384 19.7486 30.5825 19.8036 30.8064 19.9106C31.0304 20.0177 31.2288 20.1742 31.3877 20.3691L37.1555 27.839C37.3517 28.093 37.6125 28.2857 37.9088 28.3955L50.3571 33.0097V42.4972Z" fill="white"/>
</svg>
