<svg width="60" height="60" viewBox="0 0 60 60" fill="none" xmlns="http://www.w3.org/2000/svg">
<path d="M17.2727 28.2127H42.7273V24.6415H17.2727V28.2127ZM17.2727 31.7838V34.4622C17.2727 35.7518 17.5314 37.0289 18.0339 38.2204C18.5365 39.4119 19.2731 40.4945 20.2016 41.4065C21.1302 42.3184 22.2326 43.0418 23.4459 43.5354C24.6591 44.0289 25.9595 44.2829 27.2727 44.2829H32.7273C34.0405 44.2829 35.3409 44.0289 36.5541 43.5354C37.7674 43.0418 38.8698 42.3184 39.7984 41.4065C40.7269 40.4945 41.4635 39.4119 41.9661 38.2204C42.4686 37.0289 42.7273 35.7518 42.7273 34.4622V31.7838H17.2727ZM15.4545 21.0703H44.5455C44.7842 21.0703 45.0207 21.1165 45.2413 21.2062C45.4619 21.2959 45.6623 21.4275 45.8311 21.5933C46 21.7591 46.1339 21.9559 46.2253 22.1726C46.3166 22.3892 46.3637 22.6214 46.3636 22.8559V34.4622C46.3636 38.0139 44.927 41.4202 42.3696 43.9317C39.8123 46.4431 36.3439 47.8541 32.7273 47.8541H27.2727C23.6561 47.8541 20.1877 46.4431 17.6304 43.9317C15.073 41.4202 13.6364 38.0139 13.6364 34.4622V22.8559C13.6363 22.6214 13.6834 22.3892 13.7747 22.1726C13.8661 21.9559 14 21.7591 14.1689 21.5933C14.3377 21.4275 14.5381 21.2959 14.7587 21.2062C14.9793 21.1165 15.2158 21.0703 15.4545 21.0703ZM30 5C30.2388 5 30.4752 5.04619 30.6958 5.13592C30.9164 5.22566 31.1168 5.35719 31.2857 5.523C31.4545 5.68881 31.5884 5.88566 31.6798 6.1023C31.7712 6.31894 31.8182 6.55113 31.8182 6.78562V15.7135C31.8182 16.1871 31.6266 16.6412 31.2856 16.9761C30.9447 17.311 30.4822 17.4991 30 17.4991C29.5178 17.4991 29.0553 17.311 28.7144 16.9761C28.3734 16.6412 28.1818 16.1871 28.1818 15.7135V6.78562C28.1818 6.55113 28.2289 6.31894 28.3202 6.1023C28.4116 5.88566 28.5455 5.68881 28.7143 5.523C28.8832 5.35719 29.0836 5.22566 29.3042 5.13592C29.5248 5.04619 29.7612 5 30 5ZM22.7273 8.57119C23.2095 8.57119 23.672 8.75931 24.0129 9.09417C24.3539 9.42903 24.5455 9.8832 24.5455 10.3568V15.7135C24.5455 16.1871 24.3539 16.6413 24.0129 16.9761C23.6719 17.311 23.2095 17.4991 22.7273 17.4991C22.245 17.4991 21.7826 17.311 21.4416 16.9761C21.1006 16.6413 20.9091 16.1871 20.9091 15.7135V10.3568C20.9091 10.1223 20.9561 9.89008 21.0475 9.67344C21.1388 9.4568 21.2728 9.25996 21.4416 9.09415C21.6105 8.92835 21.8109 8.79682 22.0315 8.70709C22.2521 8.61736 22.4885 8.57118 22.7273 8.57119ZM37.2727 8.57119C37.5115 8.57118 37.7479 8.61736 37.9685 8.70709C38.1891 8.79682 38.3895 8.92835 38.5584 9.09415C38.7272 9.25996 38.8612 9.4568 38.9525 9.67344C39.0439 9.89008 39.0909 10.1223 39.0909 10.3568V15.7135C39.0909 16.1871 38.8994 16.6413 38.5584 16.9761C38.2174 17.311 37.755 17.4991 37.2727 17.4991C36.7905 17.4991 36.3281 17.311 35.9871 16.9761C35.6461 16.6413 35.4545 16.1871 35.4545 15.7135V10.3568C35.4545 9.8832 35.6461 9.42903 35.9871 9.09417C36.328 8.75931 36.7905 8.57119 37.2727 8.57119ZM11.8182 51.4288H48.1818C48.664 51.4288 49.1265 51.6169 49.4675 51.9518C49.8084 52.2867 50 52.7408 50 53.2144C50 53.688 49.8084 54.1421 49.4675 54.477C49.1265 54.8119 48.664 55 48.1818 55H11.8182C11.336 55 10.8735 54.8119 10.5325 54.477C10.1916 54.1421 10 53.688 10 53.2144C10 52.7408 10.1916 52.2867 10.5325 51.9518C10.8735 51.6169 11.336 51.4288 11.8182 51.4288Z" fill="white"/>
</svg>
