<svg width="60" height="60" viewBox="0 0 60 60" fill="none" xmlns="http://www.w3.org/2000/svg">
<path d="M47.574 24.1514C47.324 24.2052 43.968 24.984 39.668 27.685C39.022 24.5637 37.11 18.7195 31.452 12.7758L30 11.25L28.548 12.7778C22.87 18.7434 20.966 24.6036 20.326 27.7447C16.01 24.9979 12.68 24.2092 12.436 24.1534L10 23.6116V26.0975C10 40.6183 17.85 50 30 50C41.962 50 50 40.3952 50 26.0975V23.6235L47.574 24.1514ZM23.998 30.1569C24.002 30.0912 24.302 23.9821 30 17.146C35.628 23.9183 35.998 30.0812 36 30.0812V30.3302C33.7571 32.1865 31.7371 34.2946 29.98 36.6126C28.218 34.3355 26.2121 32.2563 23.998 30.4119V30.1569ZM30 46.0162C19.368 46.0162 14.902 37.6583 14.126 28.9578C17.436 30.388 23.358 33.7901 28.34 41.1541L30.022 43.6419L31.672 41.1322C36.524 33.7463 42.522 30.3541 45.864 28.9379C45.068 37.3595 40.608 46.0162 30 46.0162Z" fill="white"/>
</svg>
