<svg width="60" height="60" viewBox="0 0 60 60" fill="none" xmlns="http://www.w3.org/2000/svg">
<path d="M40.5897 35.3428C37.7665 32.9348 34.0792 31.4773 30.0402 31.4773C26.0013 31.4773 22.314 32.9348 19.4857 35.3477C19.4076 35.4167 19.3598 35.5127 19.3523 35.6156C19.3448 35.7184 19.3782 35.82 19.4455 35.8992L21.254 38.0117C21.3997 38.1792 21.6559 38.1989 21.8267 38.0561C24.017 36.1652 26.8905 35.0227 30.0402 35.0227C33.19 35.0227 36.0635 36.1652 38.2538 38.0511C38.4246 38.1939 38.6808 38.1742 38.8265 38.0068L40.635 35.8943C40.7756 35.7318 40.7555 35.4856 40.5897 35.3428ZM46.4874 28.4439C42.0315 24.8049 36.2996 22.6136 30.0402 22.6136C23.7809 22.6136 18.049 24.8049 13.588 28.4439C13.5064 28.5114 13.4554 28.6078 13.4459 28.712C13.4365 28.8163 13.4696 28.9199 13.5378 29.0004L15.3463 31.1129C15.487 31.2803 15.7432 31.3 15.9089 31.1621C19.7419 28.0402 24.67 26.1591 30.0402 26.1591C35.4104 26.1591 40.3386 28.0402 44.1665 31.1621C44.3373 31.3 44.5885 31.2803 44.7292 31.1129L46.5377 29.0004C46.6783 28.833 46.6582 28.5818 46.4874 28.4439ZM52.3499 21.5992C46.2513 16.6947 38.4447 13.75 29.9398 13.75C21.4901 13.75 13.7337 16.6553 7.65018 21.5008C7.60838 21.5337 7.57373 21.5745 7.54825 21.6207C7.52278 21.6669 7.50701 21.7177 7.50186 21.77C7.49671 21.8223 7.50229 21.8751 7.51827 21.9253C7.53425 21.9755 7.56031 22.022 7.59492 22.0621L9.4034 24.1746C9.54406 24.3371 9.79524 24.3617 9.96102 24.2288C15.4216 19.8905 22.3692 17.2955 29.9398 17.2955C37.5656 17.2955 44.5584 19.9299 50.0341 24.3223C50.2049 24.4602 50.456 24.4356 50.5967 24.2682L52.4052 22.1557C52.5509 21.9883 52.5257 21.7371 52.3499 21.5992ZM26.7749 43.0985C26.7749 43.9343 27.1136 44.7359 27.7166 45.3269C28.3195 45.918 29.1373 46.25 29.99 46.25C30.8427 46.25 31.6605 45.918 32.2634 45.3269C32.8664 44.7359 33.2051 43.9343 33.2051 43.0985C33.2051 42.2627 32.8664 41.4611 32.2634 40.87C31.6605 40.279 30.8427 39.947 29.99 39.947C29.1373 39.947 28.3195 40.279 27.7166 40.87C27.1136 41.4611 26.7749 42.2627 26.7749 43.0985Z" fill="white"/>
</svg>
