<svg width="40" height="40" viewBox="0 0 40 40" fill="none" xmlns="http://www.w3.org/2000/svg">
<rect width="40" height="40" rx="20" fill="#F6F7FC"/>
<path fill-rule="evenodd" clip-rule="evenodd" d="M13.2497 17C13.2497 15.2098 13.9609 13.4929 15.2268 12.227C16.4926 10.9612 18.2095 10.25 19.9997 10.25C21.7899 10.25 23.5068 10.9612 24.7727 12.227C26.0386 13.4929 26.7497 15.2098 26.7497 17V17.75C26.7497 19.873 27.5497 21.807 28.8677 23.27C28.9498 23.361 29.0084 23.4707 29.0383 23.5896C29.0682 23.7084 29.0685 23.8328 29.0391 23.9518C29.0098 24.0708 28.9518 24.1808 28.8702 24.2722C28.7885 24.3636 28.6857 24.4335 28.5707 24.476C27.0267 25.046 25.4107 25.466 23.7397 25.719C23.7774 26.2331 23.7086 26.7495 23.5377 27.2359C23.3668 27.7222 23.0974 28.1681 22.7464 28.5457C22.3955 28.9233 21.9704 29.2245 21.4978 29.4304C21.0252 29.6364 20.5152 29.7427 19.9997 29.7427C19.4842 29.7427 18.9742 29.6364 18.5016 29.4304C18.029 29.2245 17.604 28.9233 17.253 28.5457C16.9021 28.1681 16.6327 27.7222 16.4618 27.2359C16.2909 26.7495 16.2221 26.2331 16.2597 25.719C14.6114 25.4692 12.9927 25.0524 11.4287 24.475C11.3139 24.4326 11.2111 24.3627 11.1295 24.2715C11.0479 24.1802 10.9898 24.0703 10.9604 23.9515C10.931 23.8326 10.9312 23.7084 10.9609 23.5896C10.9905 23.4708 11.0489 23.3611 11.1307 23.27C12.4975 21.7567 13.2528 19.7892 13.2497 17.75V17ZM17.7517 25.9C17.7389 26.2032 17.7876 26.5058 17.8948 26.7897C18.002 27.0736 18.1655 27.3329 18.3756 27.5519C18.5856 27.771 18.8377 27.9453 19.1168 28.0644C19.3959 28.1835 19.6963 28.2448 19.9997 28.2448C20.3032 28.2448 20.6035 28.1835 20.8826 28.0644C21.1618 27.9453 21.4139 27.771 21.6239 27.5519C21.8339 27.3329 21.9974 27.0736 22.1046 26.7897C22.2119 26.5058 22.2605 26.2032 22.2477 25.9C20.7521 26.0347 19.2474 26.0347 17.7517 25.9Z" fill="#646D89"/>
</svg>
